<svg xmlns="http://www.w3.org/2000/svg" version="1.1" xmlns:xlink="http://www.w3.org/1999/xlink" xmlns:svgjs="http://svgjs.dev/svgjs" viewBox="0 0 800 800" opacity="0.37" width="800" height="800"><g stroke-width="0.75" stroke="hsl(261, 60%, 38%)" fill="none"><rect width="5.7894736842105265" height="5.7894736842105265" x="-2.8947368421052633" y="-2.8947368421052633" transform="rotate(45, 0, 0)"></rect><rect width="5.7894736842105265" height="5.7894736842105265" x="63.77192982456141" y="-2.8947368421052633" transform="rotate(45, 66.66666666666667, 0)"></rect><rect width="5.7894736842105265" height="5.7894736842105265" x="130.43859649122808" y="-2.8947368421052633" transform="rotate(45, 133.33333333333334, 0)"></rect><rect width="5.7894736842105265" height="5.7894736842105265" x="197.10526315789474" y="-2.8947368421052633" transform="rotate(45, 200, 0)"></rect><rect width="5.7894736842105265" height="5.7894736842105265" x="263.7719298245614" y="-2.8947368421052633" transform="rotate(45, 266.6666666666667, 0)"></rect><rect width="5.7894736842105265" height="5.7894736842105265" x="330.4385964912281" y="-2.8947368421052633" transform="rotate(45, 333.33333333333337, 0)"></rect><rect width="5.7894736842105265" height="5.7894736842105265" x="397.1052631578948" y="-2.8947368421052633" transform="rotate(45, 400.00000000000006, 0)"></rect><rect width="5.7894736842105265" height="5.7894736842105265" x="463.7719298245615" y="-2.8947368421052633" transform="rotate(45, 466.66666666666674, 0)"></rect><rect width="5.7894736842105265" height="5.7894736842105265" x="530.438596491228" y="-2.8947368421052633" transform="rotate(45, 533.3333333333334, 0)"></rect><rect width="5.7894736842105265" height="5.7894736842105265" x="597.1052631578947" y="-2.8947368421052633" transform="rotate(45, 600, 0)"></rect><rect width="5.7894736842105265" height="5.7894736842105265" x="663.7719298245613" y="-2.8947368421052633" transform="rotate(45, 666.6666666666666, 0)"></rect><rect width="5.7894736842105265" height="5.7894736842105265" x="730.4385964912279" y="-2.8947368421052633" transform="rotate(45, 733.3333333333333, 0)"></rect><rect width="5.7894736842105265" height="5.7894736842105265" x="797.1052631578946" y="-2.8947368421052633" transform="rotate(45, 799.9999999999999, 0)"></rect><rect width="5.7894736842105265" height="5.7894736842105265" x="-2.8947368421052633" y="63.77192982456141" transform="rotate(45, 0, 66.66666666666667)"></rect><rect width="5.7894736842105265" height="5.7894736842105265" x="63.77192982456141" y="63.77192982456141" transform="rotate(45, 66.66666666666667, 66.66666666666667)"></rect><rect width="5.7894736842105265" height="5.7894736842105265" x="130.43859649122808" y="63.77192982456141" transform="rotate(45, 133.33333333333334, 66.66666666666667)"></rect><rect width="5.7894736842105265" height="5.7894736842105265" x="197.10526315789474" y="63.77192982456141" transform="rotate(45, 200, 66.66666666666667)"></rect><rect width="5.7894736842105265" height="5.7894736842105265" x="263.7719298245614" y="63.77192982456141" transform="rotate(45, 266.6666666666667, 66.66666666666667)"></rect><rect width="5.7894736842105265" height="5.7894736842105265" x="330.4385964912281" y="63.77192982456141" transform="rotate(45, 333.33333333333337, 66.66666666666667)"></rect><rect width="5.7894736842105265" height="5.7894736842105265" x="397.1052631578948" y="63.77192982456141" transform="rotate(45, 400.00000000000006, 66.66666666666667)"></rect><rect width="5.7894736842105265" height="5.7894736842105265" x="463.7719298245615" y="63.77192982456141" transform="rotate(45, 466.66666666666674, 66.66666666666667)"></rect><rect width="5.7894736842105265" height="5.7894736842105265" x="530.438596491228" y="63.77192982456141" fill="hsl(261, 60%, 38%)" stroke="none" transform="rotate(45, 533.3333333333334, 66.66666666666667)"></rect><rect width="5.7894736842105265" height="5.7894736842105265" x="597.1052631578947" y="63.77192982456141" transform="rotate(45, 600, 66.66666666666667)"></rect><rect width="5.7894736842105265" height="5.7894736842105265" x="663.7719298245613" y="63.77192982456141" transform="rotate(45, 666.6666666666666, 66.66666666666667)"></rect><rect width="5.7894736842105265" height="5.7894736842105265" x="730.4385964912279" y="63.77192982456141" transform="rotate(45, 733.3333333333333, 66.66666666666667)"></rect><rect width="5.7894736842105265" height="5.7894736842105265" x="797.1052631578946" y="63.77192982456141" transform="rotate(45, 799.9999999999999, 66.66666666666667)"></rect><rect width="5.7894736842105265" height="5.7894736842105265" x="-2.8947368421052633" y="130.43859649122808" transform="rotate(45, 0, 133.33333333333334)"></rect><rect width="5.7894736842105265" height="5.7894736842105265" x="63.77192982456141" y="130.43859649122808" transform="rotate(45, 66.66666666666667, 133.33333333333334)"></rect><rect width="5.7894736842105265" height="5.7894736842105265" x="130.43859649122808" y="130.43859649122808" transform="rotate(45, 133.33333333333334, 133.33333333333334)"></rect><rect width="5.7894736842105265" height="5.7894736842105265" x="197.10526315789474" y="130.43859649122808" fill="hsl(261, 60%, 38%)" stroke="none" transform="rotate(45, 200, 133.33333333333334)"></rect><rect width="5.7894736842105265" height="5.7894736842105265" x="263.7719298245614" y="130.43859649122808" transform="rotate(45, 266.6666666666667, 133.33333333333334)"></rect><rect width="5.7894736842105265" height="5.7894736842105265" x="330.4385964912281" y="130.43859649122808" fill="hsl(261, 60%, 38%)" stroke="none" transform="rotate(45, 333.33333333333337, 133.33333333333334)"></rect><rect width="5.7894736842105265" height="5.7894736842105265" x="397.1052631578948" y="130.43859649122808" transform="rotate(45, 400.00000000000006, 133.33333333333334)"></rect><rect width="5.7894736842105265" height="5.7894736842105265" x="463.7719298245615" y="130.43859649122808" fill="hsl(261, 60%, 38%)" stroke="none" transform="rotate(45, 466.66666666666674, 133.33333333333334)"></rect><rect width="5.7894736842105265" height="5.7894736842105265" x="530.438596491228" y="130.43859649122808" transform="rotate(45, 533.3333333333334, 133.33333333333334)"></rect><rect width="5.7894736842105265" height="5.7894736842105265" x="597.1052631578947" y="130.43859649122808" transform="rotate(45, 600, 133.33333333333334)"></rect><rect width="5.7894736842105265" height="5.7894736842105265" x="663.7719298245613" y="130.43859649122808" transform="rotate(45, 666.6666666666666, 133.33333333333334)"></rect><rect width="5.7894736842105265" height="5.7894736842105265" x="730.4385964912279" y="130.43859649122808" transform="rotate(45, 733.3333333333333, 133.33333333333334)"></rect><rect width="5.7894736842105265" height="5.7894736842105265" x="797.1052631578946" y="130.43859649122808" transform="rotate(45, 799.9999999999999, 133.33333333333334)"></rect><rect width="5.7894736842105265" height="5.7894736842105265" x="-2.8947368421052633" y="197.10526315789474" transform="rotate(45, 0, 200)"></rect><rect width="5.7894736842105265" height="5.7894736842105265" x="63.77192982456141" y="197.10526315789474" transform="rotate(45, 66.66666666666667, 200)"></rect><rect width="5.7894736842105265" height="5.7894736842105265" x="130.43859649122808" y="197.10526315789474" transform="rotate(45, 133.33333333333334, 200)"></rect><rect width="5.7894736842105265" height="5.7894736842105265" x="197.10526315789474" y="197.10526315789474" transform="rotate(45, 200, 200)"></rect><rect width="5.7894736842105265" height="5.7894736842105265" x="263.7719298245614" y="197.10526315789474" transform="rotate(45, 266.6666666666667, 200)"></rect><rect width="5.7894736842105265" height="5.7894736842105265" x="330.4385964912281" y="197.10526315789474" transform="rotate(45, 333.33333333333337, 200)"></rect><rect width="5.7894736842105265" height="5.7894736842105265" x="397.1052631578948" y="197.10526315789474" transform="rotate(45, 400.00000000000006, 200)"></rect><rect width="5.7894736842105265" height="5.7894736842105265" x="463.7719298245615" y="197.10526315789474" transform="rotate(45, 466.66666666666674, 200)"></rect><rect width="5.7894736842105265" height="5.7894736842105265" x="530.438596491228" y="197.10526315789474" fill="hsl(261, 60%, 38%)" stroke="none" transform="rotate(45, 533.3333333333334, 200)"></rect><rect width="5.7894736842105265" height="5.7894736842105265" x="597.1052631578947" y="197.10526315789474" transform="rotate(45, 600, 200)"></rect><rect width="5.7894736842105265" height="5.7894736842105265" x="663.7719298245613" y="197.10526315789474" fill="hsl(261, 60%, 38%)" stroke="none" transform="rotate(45, 666.6666666666666, 200)"></rect><rect width="5.7894736842105265" height="5.7894736842105265" x="730.4385964912279" y="197.10526315789474" transform="rotate(45, 733.3333333333333, 200)"></rect><rect width="5.7894736842105265" height="5.7894736842105265" x="797.1052631578946" y="197.10526315789474" transform="rotate(45, 799.9999999999999, 200)"></rect><rect width="5.7894736842105265" height="5.7894736842105265" x="-2.8947368421052633" y="263.7719298245614" transform="rotate(45, 0, 266.6666666666667)"></rect><rect width="5.7894736842105265" height="5.7894736842105265" x="63.77192982456141" y="263.7719298245614" transform="rotate(45, 66.66666666666667, 266.6666666666667)"></rect><rect width="5.7894736842105265" height="5.7894736842105265" x="130.43859649122808" y="263.7719298245614" transform="rotate(45, 133.33333333333334, 266.6666666666667)"></rect><rect width="5.7894736842105265" height="5.7894736842105265" x="197.10526315789474" y="263.7719298245614" fill="hsl(261, 60%, 38%)" stroke="none" transform="rotate(45, 200, 266.6666666666667)"></rect><rect width="5.7894736842105265" height="5.7894736842105265" x="263.7719298245614" y="263.7719298245614" transform="rotate(45, 266.6666666666667, 266.6666666666667)"></rect><rect width="5.7894736842105265" height="5.7894736842105265" x="330.4385964912281" y="263.7719298245614" transform="rotate(45, 333.33333333333337, 266.6666666666667)"></rect><rect width="5.7894736842105265" height="5.7894736842105265" x="397.1052631578948" y="263.7719298245614" transform="rotate(45, 400.00000000000006, 266.6666666666667)"></rect><rect width="5.7894736842105265" height="5.7894736842105265" x="463.7719298245615" y="263.7719298245614" transform="rotate(45, 466.66666666666674, 266.6666666666667)"></rect><rect width="5.7894736842105265" height="5.7894736842105265" x="530.438596491228" y="263.7719298245614" transform="rotate(45, 533.3333333333334, 266.6666666666667)"></rect><rect width="5.7894736842105265" height="5.7894736842105265" x="597.1052631578947" y="263.7719298245614" transform="rotate(45, 600, 266.6666666666667)"></rect><rect width="5.7894736842105265" height="5.7894736842105265" x="663.7719298245613" y="263.7719298245614" transform="rotate(45, 666.6666666666666, 266.6666666666667)"></rect><rect width="5.7894736842105265" height="5.7894736842105265" x="730.4385964912279" y="263.7719298245614" fill="hsl(261, 60%, 38%)" stroke="none" transform="rotate(45, 733.3333333333333, 266.6666666666667)"></rect><rect width="5.7894736842105265" height="5.7894736842105265" x="797.1052631578946" y="263.7719298245614" transform="rotate(45, 799.9999999999999, 266.6666666666667)"></rect><rect width="5.7894736842105265" height="5.7894736842105265" x="-2.8947368421052633" y="330.4385964912281" transform="rotate(45, 0, 333.33333333333337)"></rect><rect width="5.7894736842105265" height="5.7894736842105265" x="63.77192982456141" y="330.4385964912281" fill="hsl(261, 60%, 38%)" stroke="none" transform="rotate(45, 66.66666666666667, 333.33333333333337)"></rect><rect width="5.7894736842105265" height="5.7894736842105265" x="130.43859649122808" y="330.4385964912281" transform="rotate(45, 133.33333333333334, 333.33333333333337)"></rect><rect width="5.7894736842105265" height="5.7894736842105265" x="197.10526315789474" y="330.4385964912281" transform="rotate(45, 200, 333.33333333333337)"></rect><rect width="5.7894736842105265" height="5.7894736842105265" x="263.7719298245614" y="330.4385964912281" transform="rotate(45, 266.6666666666667, 333.33333333333337)"></rect><rect width="5.7894736842105265" height="5.7894736842105265" x="330.4385964912281" y="330.4385964912281" fill="hsl(261, 60%, 38%)" stroke="none" transform="rotate(45, 333.33333333333337, 333.33333333333337)"></rect><rect width="5.7894736842105265" height="5.7894736842105265" x="397.1052631578948" y="330.4385964912281" transform="rotate(45, 400.00000000000006, 333.33333333333337)"></rect><rect width="5.7894736842105265" height="5.7894736842105265" x="463.7719298245615" y="330.4385964912281" transform="rotate(45, 466.66666666666674, 333.33333333333337)"></rect><rect width="5.7894736842105265" height="5.7894736842105265" x="530.438596491228" y="330.4385964912281" transform="rotate(45, 533.3333333333334, 333.33333333333337)"></rect><rect width="5.7894736842105265" height="5.7894736842105265" x="597.1052631578947" y="330.4385964912281" fill="hsl(261, 60%, 38%)" stroke="none" transform="rotate(45, 600, 333.33333333333337)"></rect><rect width="5.7894736842105265" height="5.7894736842105265" x="663.7719298245613" y="330.4385964912281" fill="hsl(261, 60%, 38%)" stroke="none" transform="rotate(45, 666.6666666666666, 333.33333333333337)"></rect><rect width="5.7894736842105265" height="5.7894736842105265" x="730.4385964912279" y="330.4385964912281" transform="rotate(45, 733.3333333333333, 333.33333333333337)"></rect><rect width="5.7894736842105265" height="5.7894736842105265" x="797.1052631578946" y="330.4385964912281" transform="rotate(45, 799.9999999999999, 333.33333333333337)"></rect><rect width="5.7894736842105265" height="5.7894736842105265" x="-2.8947368421052633" y="397.1052631578948" transform="rotate(45, 0, 400.00000000000006)"></rect><rect width="5.7894736842105265" height="5.7894736842105265" x="63.77192982456141" y="397.1052631578948" transform="rotate(45, 66.66666666666667, 400.00000000000006)"></rect><rect width="5.7894736842105265" height="5.7894736842105265" x="130.43859649122808" y="397.1052631578948" transform="rotate(45, 133.33333333333334, 400.00000000000006)"></rect><rect width="5.7894736842105265" height="5.7894736842105265" x="197.10526315789474" y="397.1052631578948" transform="rotate(45, 200, 400.00000000000006)"></rect><rect width="5.7894736842105265" height="5.7894736842105265" x="263.7719298245614" y="397.1052631578948" transform="rotate(45, 266.6666666666667, 400.00000000000006)"></rect><rect width="5.7894736842105265" height="5.7894736842105265" x="330.4385964912281" y="397.1052631578948" transform="rotate(45, 333.33333333333337, 400.00000000000006)"></rect><rect width="5.7894736842105265" height="5.7894736842105265" x="397.1052631578948" y="397.1052631578948" fill="hsl(261, 60%, 38%)" stroke="none" transform="rotate(45, 400.00000000000006, 400.00000000000006)"></rect><rect width="5.7894736842105265" height="5.7894736842105265" x="463.7719298245615" y="397.1052631578948" transform="rotate(45, 466.66666666666674, 400.00000000000006)"></rect><rect width="5.7894736842105265" height="5.7894736842105265" x="530.438596491228" y="397.1052631578948" transform="rotate(45, 533.3333333333334, 400.00000000000006)"></rect><rect width="5.7894736842105265" height="5.7894736842105265" x="597.1052631578947" y="397.1052631578948" transform="rotate(45, 600, 400.00000000000006)"></rect><rect width="5.7894736842105265" height="5.7894736842105265" x="663.7719298245613" y="397.1052631578948" transform="rotate(45, 666.6666666666666, 400.00000000000006)"></rect><rect width="5.7894736842105265" height="5.7894736842105265" x="730.4385964912279" y="397.1052631578948" fill="hsl(261, 60%, 38%)" stroke="none" transform="rotate(45, 733.3333333333333, 400.00000000000006)"></rect><rect width="5.7894736842105265" height="5.7894736842105265" x="797.1052631578946" y="397.1052631578948" transform="rotate(45, 799.9999999999999, 400.00000000000006)"></rect><rect width="5.7894736842105265" height="5.7894736842105265" x="-2.8947368421052633" y="463.7719298245615" transform="rotate(45, 0, 466.66666666666674)"></rect><rect width="5.7894736842105265" height="5.7894736842105265" x="63.77192982456141" y="463.7719298245615" transform="rotate(45, 66.66666666666667, 466.66666666666674)"></rect><rect width="5.7894736842105265" height="5.7894736842105265" x="130.43859649122808" y="463.7719298245615" transform="rotate(45, 133.33333333333334, 466.66666666666674)"></rect><rect width="5.7894736842105265" height="5.7894736842105265" x="197.10526315789474" y="463.7719298245615" transform="rotate(45, 200, 466.66666666666674)"></rect><rect width="5.7894736842105265" height="5.7894736842105265" x="263.7719298245614" y="463.7719298245615" transform="rotate(45, 266.6666666666667, 466.66666666666674)"></rect><rect width="5.7894736842105265" height="5.7894736842105265" x="330.4385964912281" y="463.7719298245615" transform="rotate(45, 333.33333333333337, 466.66666666666674)"></rect><rect width="5.7894736842105265" height="5.7894736842105265" x="397.1052631578948" y="463.7719298245615" transform="rotate(45, 400.00000000000006, 466.66666666666674)"></rect><rect width="5.7894736842105265" height="5.7894736842105265" x="463.7719298245615" y="463.7719298245615" transform="rotate(45, 466.66666666666674, 466.66666666666674)"></rect><rect width="5.7894736842105265" height="5.7894736842105265" x="530.438596491228" y="463.7719298245615" transform="rotate(45, 533.3333333333334, 466.66666666666674)"></rect><rect width="5.7894736842105265" height="5.7894736842105265" x="597.1052631578947" y="463.7719298245615" transform="rotate(45, 600, 466.66666666666674)"></rect><rect width="5.7894736842105265" height="5.7894736842105265" x="663.7719298245613" y="463.7719298245615" transform="rotate(45, 666.6666666666666, 466.66666666666674)"></rect><rect width="5.7894736842105265" height="5.7894736842105265" x="730.4385964912279" y="463.7719298245615" transform="rotate(45, 733.3333333333333, 466.66666666666674)"></rect><rect width="5.7894736842105265" height="5.7894736842105265" x="797.1052631578946" y="463.7719298245615" transform="rotate(45, 799.9999999999999, 466.66666666666674)"></rect><rect width="5.7894736842105265" height="5.7894736842105265" x="-2.8947368421052633" y="530.438596491228" transform="rotate(45, 0, 533.3333333333334)"></rect><rect width="5.7894736842105265" height="5.7894736842105265" x="63.77192982456141" y="530.438596491228" fill="hsl(261, 60%, 38%)" stroke="none" transform="rotate(45, 66.66666666666667, 533.3333333333334)"></rect><rect width="5.7894736842105265" height="5.7894736842105265" x="130.43859649122808" y="530.438596491228" transform="rotate(45, 133.33333333333334, 533.3333333333334)"></rect><rect width="5.7894736842105265" height="5.7894736842105265" x="197.10526315789474" y="530.438596491228" fill="hsl(261, 60%, 38%)" stroke="none" transform="rotate(45, 200, 533.3333333333334)"></rect><rect width="5.7894736842105265" height="5.7894736842105265" x="263.7719298245614" y="530.438596491228" transform="rotate(45, 266.6666666666667, 533.3333333333334)"></rect><rect width="5.7894736842105265" height="5.7894736842105265" x="330.4385964912281" y="530.438596491228" transform="rotate(45, 333.33333333333337, 533.3333333333334)"></rect><rect width="5.7894736842105265" height="5.7894736842105265" x="397.1052631578948" y="530.438596491228" transform="rotate(45, 400.00000000000006, 533.3333333333334)"></rect><rect width="5.7894736842105265" height="5.7894736842105265" x="463.7719298245615" y="530.438596491228" transform="rotate(45, 466.66666666666674, 533.3333333333334)"></rect><rect width="5.7894736842105265" height="5.7894736842105265" x="530.438596491228" y="530.438596491228" fill="hsl(261, 60%, 38%)" stroke="none" transform="rotate(45, 533.3333333333334, 533.3333333333334)"></rect><rect width="5.7894736842105265" height="5.7894736842105265" x="597.1052631578947" y="530.438596491228" transform="rotate(45, 600, 533.3333333333334)"></rect><rect width="5.7894736842105265" height="5.7894736842105265" x="663.7719298245613" y="530.438596491228" transform="rotate(45, 666.6666666666666, 533.3333333333334)"></rect><rect width="5.7894736842105265" height="5.7894736842105265" x="730.4385964912279" y="530.438596491228" transform="rotate(45, 733.3333333333333, 533.3333333333334)"></rect><rect width="5.7894736842105265" height="5.7894736842105265" x="797.1052631578946" y="530.438596491228" transform="rotate(45, 799.9999999999999, 533.3333333333334)"></rect><rect width="5.7894736842105265" height="5.7894736842105265" x="-2.8947368421052633" y="597.1052631578947" transform="rotate(45, 0, 600)"></rect><rect width="5.7894736842105265" height="5.7894736842105265" x="63.77192982456141" y="597.1052631578947" transform="rotate(45, 66.66666666666667, 600)"></rect><rect width="5.7894736842105265" height="5.7894736842105265" x="130.43859649122808" y="597.1052631578947" transform="rotate(45, 133.33333333333334, 600)"></rect><rect width="5.7894736842105265" height="5.7894736842105265" x="197.10526315789474" y="597.1052631578947" transform="rotate(45, 200, 600)"></rect><rect width="5.7894736842105265" height="5.7894736842105265" x="263.7719298245614" y="597.1052631578947" transform="rotate(45, 266.6666666666667, 600)"></rect><rect width="5.7894736842105265" height="5.7894736842105265" x="330.4385964912281" y="597.1052631578947" transform="rotate(45, 333.33333333333337, 600)"></rect><rect width="5.7894736842105265" height="5.7894736842105265" x="397.1052631578948" y="597.1052631578947" fill="hsl(261, 60%, 38%)" stroke="none" transform="rotate(45, 400.00000000000006, 600)"></rect><rect width="5.7894736842105265" height="5.7894736842105265" x="463.7719298245615" y="597.1052631578947" fill="hsl(261, 60%, 38%)" stroke="none" transform="rotate(45, 466.66666666666674, 600)"></rect><rect width="5.7894736842105265" height="5.7894736842105265" x="530.438596491228" y="597.1052631578947" fill="hsl(261, 60%, 38%)" stroke="none" transform="rotate(45, 533.3333333333334, 600)"></rect><rect width="5.7894736842105265" height="5.7894736842105265" x="597.1052631578947" y="597.1052631578947" transform="rotate(45, 600, 600)"></rect><rect width="5.7894736842105265" height="5.7894736842105265" x="663.7719298245613" y="597.1052631578947" fill="hsl(261, 60%, 38%)" stroke="none" transform="rotate(45, 666.6666666666666, 600)"></rect><rect width="5.7894736842105265" height="5.7894736842105265" x="730.4385964912279" y="597.1052631578947" transform="rotate(45, 733.3333333333333, 600)"></rect><rect width="5.7894736842105265" height="5.7894736842105265" x="797.1052631578946" y="597.1052631578947" transform="rotate(45, 799.9999999999999, 600)"></rect><rect width="5.7894736842105265" height="5.7894736842105265" x="-2.8947368421052633" y="663.7719298245613" transform="rotate(45, 0, 666.6666666666666)"></rect><rect width="5.7894736842105265" height="5.7894736842105265" x="63.77192982456141" y="663.7719298245613" transform="rotate(45, 66.66666666666667, 666.6666666666666)"></rect><rect width="5.7894736842105265" height="5.7894736842105265" x="130.43859649122808" y="663.7719298245613" transform="rotate(45, 133.33333333333334, 666.6666666666666)"></rect><rect width="5.7894736842105265" height="5.7894736842105265" x="197.10526315789474" y="663.7719298245613" transform="rotate(45, 200, 666.6666666666666)"></rect><rect width="5.7894736842105265" height="5.7894736842105265" x="263.7719298245614" y="663.7719298245613" transform="rotate(45, 266.6666666666667, 666.6666666666666)"></rect><rect width="5.7894736842105265" height="5.7894736842105265" x="330.4385964912281" y="663.7719298245613" transform="rotate(45, 333.33333333333337, 666.6666666666666)"></rect><rect width="5.7894736842105265" height="5.7894736842105265" x="397.1052631578948" y="663.7719298245613" transform="rotate(45, 400.00000000000006, 666.6666666666666)"></rect><rect width="5.7894736842105265" height="5.7894736842105265" x="463.7719298245615" y="663.7719298245613" transform="rotate(45, 466.66666666666674, 666.6666666666666)"></rect><rect width="5.7894736842105265" height="5.7894736842105265" x="530.438596491228" y="663.7719298245613" transform="rotate(45, 533.3333333333334, 666.6666666666666)"></rect><rect width="5.7894736842105265" height="5.7894736842105265" x="597.1052631578947" y="663.7719298245613" transform="rotate(45, 600, 666.6666666666666)"></rect><rect width="5.7894736842105265" height="5.7894736842105265" x="663.7719298245613" y="663.7719298245613" transform="rotate(45, 666.6666666666666, 666.6666666666666)"></rect><rect width="5.7894736842105265" height="5.7894736842105265" x="730.4385964912279" y="663.7719298245613" transform="rotate(45, 733.3333333333333, 666.6666666666666)"></rect><rect width="5.7894736842105265" height="5.7894736842105265" x="797.1052631578946" y="663.7719298245613" transform="rotate(45, 799.9999999999999, 666.6666666666666)"></rect><rect width="5.7894736842105265" height="5.7894736842105265" x="-2.8947368421052633" y="730.4385964912279" transform="rotate(45, 0, 733.3333333333333)"></rect><rect width="5.7894736842105265" height="5.7894736842105265" x="63.77192982456141" y="730.4385964912279" transform="rotate(45, 66.66666666666667, 733.3333333333333)"></rect><rect width="5.7894736842105265" height="5.7894736842105265" x="130.43859649122808" y="730.4385964912279" transform="rotate(45, 133.33333333333334, 733.3333333333333)"></rect><rect width="5.7894736842105265" height="5.7894736842105265" x="197.10526315789474" y="730.4385964912279" transform="rotate(45, 200, 733.3333333333333)"></rect><rect width="5.7894736842105265" height="5.7894736842105265" x="263.7719298245614" y="730.4385964912279" transform="rotate(45, 266.6666666666667, 733.3333333333333)"></rect><rect width="5.7894736842105265" height="5.7894736842105265" x="330.4385964912281" y="730.4385964912279" transform="rotate(45, 333.33333333333337, 733.3333333333333)"></rect><rect width="5.7894736842105265" height="5.7894736842105265" x="397.1052631578948" y="730.4385964912279" transform="rotate(45, 400.00000000000006, 733.3333333333333)"></rect><rect width="5.7894736842105265" height="5.7894736842105265" x="463.7719298245615" y="730.4385964912279" transform="rotate(45, 466.66666666666674, 733.3333333333333)"></rect><rect width="5.7894736842105265" height="5.7894736842105265" x="530.438596491228" y="730.4385964912279" transform="rotate(45, 533.3333333333334, 733.3333333333333)"></rect><rect width="5.7894736842105265" height="5.7894736842105265" x="597.1052631578947" y="730.4385964912279" transform="rotate(45, 600, 733.3333333333333)"></rect><rect width="5.7894736842105265" height="5.7894736842105265" x="663.7719298245613" y="730.4385964912279" fill="hsl(261, 60%, 38%)" stroke="none" transform="rotate(45, 666.6666666666666, 733.3333333333333)"></rect><rect width="5.7894736842105265" height="5.7894736842105265" x="730.4385964912279" y="730.4385964912279" transform="rotate(45, 733.3333333333333, 733.3333333333333)"></rect><rect width="5.7894736842105265" height="5.7894736842105265" x="797.1052631578946" y="730.4385964912279" transform="rotate(45, 799.9999999999999, 733.3333333333333)"></rect><rect width="5.7894736842105265" height="5.7894736842105265" x="-2.8947368421052633" y="797.1052631578946" transform="rotate(45, 0, 799.9999999999999)"></rect><rect width="5.7894736842105265" height="5.7894736842105265" x="63.77192982456141" y="797.1052631578946" transform="rotate(45, 66.66666666666667, 799.9999999999999)"></rect><rect width="5.7894736842105265" height="5.7894736842105265" x="130.43859649122808" y="797.1052631578946" transform="rotate(45, 133.33333333333334, 799.9999999999999)"></rect><rect width="5.7894736842105265" height="5.7894736842105265" x="197.10526315789474" y="797.1052631578946" transform="rotate(45, 200, 799.9999999999999)"></rect><rect width="5.7894736842105265" height="5.7894736842105265" x="263.7719298245614" y="797.1052631578946" transform="rotate(45, 266.6666666666667, 799.9999999999999)"></rect><rect width="5.7894736842105265" height="5.7894736842105265" x="330.4385964912281" y="797.1052631578946" transform="rotate(45, 333.33333333333337, 799.9999999999999)"></rect><rect width="5.7894736842105265" height="5.7894736842105265" x="397.1052631578948" y="797.1052631578946" transform="rotate(45, 400.00000000000006, 799.9999999999999)"></rect><rect width="5.7894736842105265" height="5.7894736842105265" x="463.7719298245615" y="797.1052631578946" transform="rotate(45, 466.66666666666674, 799.9999999999999)"></rect><rect width="5.7894736842105265" height="5.7894736842105265" x="530.438596491228" y="797.1052631578946" transform="rotate(45, 533.3333333333334, 799.9999999999999)"></rect><rect width="5.7894736842105265" height="5.7894736842105265" x="597.1052631578947" y="797.1052631578946" transform="rotate(45, 600, 799.9999999999999)"></rect><rect width="5.7894736842105265" height="5.7894736842105265" x="663.7719298245613" y="797.1052631578946" transform="rotate(45, 666.6666666666666, 799.9999999999999)"></rect><rect width="5.7894736842105265" height="5.7894736842105265" x="730.4385964912279" y="797.1052631578946" transform="rotate(45, 733.3333333333333, 799.9999999999999)"></rect><rect width="5.7894736842105265" height="5.7894736842105265" x="797.1052631578946" y="797.1052631578946" transform="rotate(45, 799.9999999999999, 799.9999999999999)"></rect></g></svg>